<svg width="512" height="512" viewBox="0 0 512 512" fill="none" xmlns="http://www.w3.org/2000/svg">
<circle cx="262" cy="201" r="55" fill="#F1F5F9"/>
<mask id="path-2-outside-1_1_2" maskUnits="userSpaceOnUse" x="100" y="19" width="324" height="476" fill="black">
<rect fill="white" x="100" y="19" width="324" height="476"/>
<path fill-rule="evenodd" clip-rule="evenodd" d="M263.444 490C263.444 490 421 291.1 421 185.184C421 79.2684 355.09 22 263.444 22C171.798 22 103 79.2684 103 185.184C103 291.1 263.444 490 263.444 490ZM262 256C292.376 256 317 231.376 317 201C317 170.624 292.376 146 262 146C231.624 146 207 170.624 207 201C207 231.376 231.624 256 262 256Z"/>
</mask>
<path fill-rule="evenodd" clip-rule="evenodd" d="M263.444 490C263.444 490 421 291.1 421 185.184C421 79.2684 355.09 22 263.444 22C171.798 22 103 79.2684 103 185.184C103 291.1 263.444 490 263.444 490ZM262 256C292.376 256 317 231.376 317 201C317 170.624 292.376 146 262 146C231.624 146 207 170.624 207 201C207 231.376 231.624 256 262 256Z" fill="url(#paint0_linear_1_2)"/>
<path d="M263.444 490L261.109 491.884L263.465 494.805L265.795 491.863L263.444 490ZM418 185.184C418 211.03 408.357 242.857 393.636 276.286C378.945 309.646 359.331 344.304 339.678 375.719C320.031 407.126 300.379 435.239 285.636 455.502C278.266 465.632 272.125 473.797 267.829 479.427C265.681 482.241 263.994 484.422 262.846 485.898C262.271 486.636 261.832 487.197 261.536 487.573C261.389 487.761 261.277 487.903 261.202 487.997C261.165 488.045 261.137 488.08 261.119 488.103C261.11 488.115 261.103 488.124 261.098 488.129C261.096 488.132 261.094 488.134 261.093 488.136C261.092 488.137 261.092 488.137 263.444 490C265.795 491.863 265.796 491.862 265.797 491.86C265.799 491.858 265.801 491.856 265.803 491.853C265.808 491.846 265.816 491.837 265.826 491.824C265.846 491.799 265.875 491.762 265.913 491.713C265.99 491.616 266.105 491.471 266.255 491.279C266.556 490.896 267.001 490.328 267.58 489.583C268.74 488.093 270.438 485.897 272.599 483.067C276.919 477.405 283.087 469.204 290.488 459.032C305.286 438.692 325.023 410.46 344.765 378.902C364.501 347.353 384.277 312.426 399.127 278.704C413.948 245.05 424 212.297 424 185.184H418ZM263.444 25C308.642 25 347.217 39.1121 374.482 66.0094C401.736 92.8951 418 132.863 418 185.184H424C424 131.59 407.309 89.9654 378.696 61.738C350.094 33.5222 309.891 19 263.444 19V25ZM106 185.184C106 132.9 122.962 92.9356 150.934 66.036C178.928 39.1157 218.241 25 263.444 25V19C217 19 176.092 33.5186 146.775 61.7113C117.437 89.9249 100 131.552 100 185.184H106ZM263.444 490C265.779 488.116 265.778 488.116 265.777 488.115C265.776 488.113 265.775 488.111 265.772 488.109C265.768 488.103 265.761 488.094 265.751 488.083C265.733 488.059 265.704 488.024 265.666 487.977C265.59 487.882 265.477 487.741 265.326 487.552C265.025 487.176 264.578 486.615 263.993 485.877C262.823 484.401 261.106 482.221 258.918 479.406C254.544 473.776 248.29 465.611 240.785 455.481C225.772 435.217 205.759 407.105 185.752 375.699C165.739 344.283 145.766 309.626 130.807 276.267C115.816 242.839 106 211.018 106 185.184H100C100 212.308 110.24 245.068 125.332 278.722C140.455 312.446 160.594 347.374 180.692 378.922C200.795 410.481 220.894 438.713 235.964 459.053C243.5 469.224 249.781 477.426 254.181 483.087C256.38 485.918 258.11 488.114 259.291 489.604C259.881 490.349 260.334 490.917 260.641 491.3C260.794 491.491 260.91 491.637 260.988 491.734C261.028 491.783 261.057 491.82 261.077 491.845C261.087 491.857 261.095 491.867 261.1 491.873C261.103 491.876 261.105 491.879 261.106 491.881C261.108 491.882 261.109 491.884 263.444 490ZM314 201C314 229.719 290.719 253 262 253V259C294.033 259 320 233.033 320 201H314ZM262 149C290.719 149 314 172.281 314 201H320C320 168.967 294.033 143 262 143V149ZM210 201C210 172.281 233.281 149 262 149V143C229.967 143 204 168.967 204 201H210ZM262 253C233.281 253 210 229.719 210 201H204C204 233.033 229.967 259 262 259V253Z" fill="#822AD2" mask="url(#path-2-outside-1_1_2)"/>
<mask id="path-4-outside-2_1_2" maskUnits="userSpaceOnUse" x="182.582" y="382.649" width="160" height="113" fill="black">
<rect fill="white" x="182.582" y="382.649" width="160" height="113"/>
<path fill-rule="evenodd" clip-rule="evenodd" d="M336.958 385.649C299.399 444.609 263.444 490 263.444 490C263.444 490 226.829 444.609 188.582 385.649L336.958 385.649Z"/>
</mask>
<path fill-rule="evenodd" clip-rule="evenodd" d="M336.958 385.649C299.399 444.609 263.444 490 263.444 490C263.444 490 226.829 444.609 188.582 385.649L336.958 385.649Z" fill="url(#paint1_linear_1_2)"/>
<path d="M336.958 385.649L339.488 387.26L342.426 382.649H336.958V385.649ZM263.444 490L261.109 491.884L263.465 494.805L265.795 491.863L263.444 490ZM188.582 385.649V382.649H183.06L186.065 387.281L188.582 385.649ZM334.428 384.037C315.692 413.449 297.352 439.483 283.694 458.164C276.867 467.504 271.211 475.003 267.265 480.164C265.292 482.745 263.747 484.741 262.695 486.091C262.17 486.766 261.768 487.279 261.498 487.622C261.363 487.794 261.261 487.924 261.193 488.01C261.159 488.053 261.133 488.085 261.116 488.106C261.108 488.117 261.102 488.125 261.098 488.13C261.096 488.133 261.094 488.135 261.093 488.136C261.093 488.136 261.092 488.137 261.092 488.137C261.092 488.137 261.092 488.137 263.444 490C265.795 491.863 265.795 491.862 265.796 491.862C265.796 491.862 265.797 491.861 265.797 491.86C265.799 491.859 265.8 491.856 265.803 491.853C265.807 491.847 265.814 491.839 265.823 491.827C265.841 491.805 265.868 491.771 265.903 491.726C265.974 491.637 266.078 491.504 266.216 491.329C266.491 490.979 266.898 490.46 267.429 489.778C268.49 488.415 270.047 486.404 272.032 483.809C276.001 478.617 281.682 471.083 288.538 461.705C302.248 442.951 320.665 416.809 339.488 387.26L334.428 384.037ZM263.444 490C265.779 488.116 265.779 488.116 265.778 488.116C265.778 488.116 265.778 488.116 265.777 488.115C265.776 488.114 265.775 488.112 265.773 488.109C265.769 488.104 265.762 488.096 265.754 488.086C265.737 488.064 265.711 488.032 265.676 487.989C265.607 487.903 265.503 487.773 265.366 487.602C265.091 487.258 264.681 486.745 264.146 486.07C263.075 484.721 261.501 482.724 259.492 480.144C255.474 474.982 249.715 467.483 242.762 458.143C228.854 439.462 210.178 413.428 191.099 384.016L186.065 387.281C205.233 416.83 223.988 442.972 237.949 461.726C244.931 471.104 250.716 478.638 254.758 483.829C256.779 486.425 258.364 488.436 259.445 489.799C259.986 490.48 260.401 491 260.681 491.35C260.821 491.525 260.927 491.658 260.999 491.747C261.035 491.792 261.062 491.825 261.08 491.848C261.089 491.86 261.096 491.868 261.101 491.874C261.103 491.877 261.105 491.879 261.106 491.881C261.107 491.882 261.108 491.882 261.108 491.883C261.108 491.883 261.109 491.884 263.444 490ZM188.582 388.649H336.958V382.649H188.582V388.649Z" fill="#E9AC11" mask="url(#path-4-outside-2_1_2)"/>
<mask id="path-6-outside-3_1_2" maskUnits="userSpaceOnUse" x="179.582" y="378" width="166" height="12" fill="black">
<rect fill="white" x="179.582" y="378" width="166" height="12"/>
<path fill-rule="evenodd" clip-rule="evenodd" d="M189.46 387C188.169 385.015 186.876 383.015 185.582 381L339.904 381C338.634 383.015 337.364 385.015 336.096 387H189.46Z"/>
</mask>
<path fill-rule="evenodd" clip-rule="evenodd" d="M189.46 387C188.169 385.015 186.876 383.015 185.582 381L339.904 381C338.634 383.015 337.364 385.015 336.096 387H189.46Z" fill="#F1F5F9"/>
<path d="M189.46 387L186.945 388.636L187.833 390H189.46V387ZM185.582 381V378H180.09L183.057 382.621L185.582 381ZM339.904 381L342.442 382.6L345.343 378H339.904V381ZM336.096 387V390H337.739L338.624 388.615L336.096 387ZM191.975 385.364C190.687 383.384 189.397 381.389 188.106 379.379L183.057 382.621C184.355 384.641 185.651 386.646 186.945 388.636L191.975 385.364ZM339.904 378H185.582V384H339.904V378ZM337.367 379.4C336.099 381.41 334.832 383.405 333.568 385.385L338.624 388.615C339.895 386.626 341.168 384.62 342.442 382.6L337.367 379.4ZM189.46 390H336.096V384H189.46V390Z" fill="#F1F5F9" mask="url(#path-6-outside-3_1_2)"/>
<defs>
<linearGradient id="paint0_linear_1_2" x1="262" y1="22" x2="262" y2="490" gradientUnits="userSpaceOnUse">
<stop stop-color="#591F8E"/>
<stop offset="0.265625" stop-color="#7F2ACC"/>
<stop offset="1" stop-color="#9333EA"/>
</linearGradient>
<linearGradient id="paint1_linear_1_2" x1="262.77" y1="385.649" x2="262.77" y2="490" gradientUnits="userSpaceOnUse">
<stop stop-color="#CF990D"/>
<stop offset="0.827976" stop-color="#F4C750"/>
<stop offset="1" stop-color="#FFC93F"/>
</linearGradient>
</defs>
</svg>
